<svg width="140" height="37" viewBox="0 0 140 37" xmlns="http://www.w3.org/2000/svg"><title>logo/Homage-Full@3x</title><g fill="#FFF" fill-rule="evenodd"><path d="M39.693 32.14c0 .825-.66 1.497-1.472 1.497h-3.49c-3.485 0-6.847-.727-9.92-2.085a28.54 28.54 0 0 0 7.316-8.007l.006-.016c.01-.013.019-.024.026-.038.57-1.01.871-2.163.871-3.332 0-3.697-2.957-6.705-6.592-6.705-1.966 0-3.73.885-4.938 2.28-1.209-1.395-2.972-2.28-4.938-2.28-3.636 0-6.593 3.008-6.593 6.705 0 1.165.3 2.313.865 3.32.008.016.02.029.028.044l.007.013a28.54 28.54 0 0 0 7.32 8.016 24.49 24.49 0 0 1-9.92 2.085H4.78c-.812 0-1.472-.672-1.472-1.497V16.837c0-.5.246-.966.656-1.244L21.5 3.703l5.698 3.863c.507.344 1.16.376 1.698.084.538-.293.873-.863.873-1.483V3.801c0-.241.193-.437.43-.437h2.449c.236 0 .429.196.429.437v6.851c0 .562.276 1.087.737 1.4l5.223 3.54c.41.279.656.744.656 1.245V32.14zm-26-10.358a3.372 3.372 0 0 1-.417-1.623c0-1.842 1.474-3.34 3.286-3.34 1.81 0 3.284 1.498 3.284 3.34 0 .928.74 1.681 1.654 1.681.913 0 1.653-.753 1.653-1.681 0-1.842 1.474-3.34 3.285-3.34 1.811 0 3.285 1.498 3.285 3.34a3.37 3.37 0 0 1-.42 1.63c-2.028 3.29-4.703 5.994-7.803 7.982-3.102-1.99-5.779-4.695-7.807-7.99zm27.179-8.988l-4.487-3.042v-5.95C36.385 1.704 34.708 0 32.648 0h-2.449c-1.816 0-3.333 1.324-3.669 3.072L22.995.675a2.652 2.652 0 0 0-2.99 0L2.128 12.794A4.871 4.871 0 0 0 0 16.837V32.14C0 34.82 2.144 37 4.78 37h3.49a27.7 27.7 0 0 0 13.23-3.339A27.704 27.704 0 0 0 34.73 37h3.49c2.636 0 4.78-2.18 4.78-4.86V16.837c0-1.628-.796-3.14-2.128-4.043z"/><path d="M59.724 28.684v-6.912h7.156v6.912h2.725V13H66.88v6.247h-7.156V13H57v15.684h2.724zm18.183.265c.778 0 1.513-.133 2.205-.398a5.27 5.27 0 0 0 1.794-1.13 5.364 5.364 0 0 0 1.2-1.761c.296-.687.444-1.451.444-2.293 0-.842-.148-1.606-.444-2.293a5.364 5.364 0 0 0-1.2-1.76 5.27 5.27 0 0 0-1.794-1.13 6.095 6.095 0 0 0-2.205-.4c-.779 0-1.514.134-2.206.4a5.27 5.27 0 0 0-1.794 1.13 5.364 5.364 0 0 0-1.2 1.76c-.295.687-.443 1.451-.443 2.293 0 .842.148 1.606.443 2.293a5.364 5.364 0 0 0 1.2 1.76 5.27 5.27 0 0 0 1.794 1.13 6.095 6.095 0 0 0 2.206.4zm0-2.392c-.476 0-.901-.089-1.276-.266a3.019 3.019 0 0 1-.962-.709 3.016 3.016 0 0 1-.605-1.019 3.535 3.535 0 0 1-.206-1.196c0-.413.069-.812.206-1.196.137-.384.338-.724.605-1.02a3.05 3.05 0 0 1 .962-.708c.375-.177.8-.266 1.276-.266.475 0 .9.089 1.275.266a3.011 3.011 0 0 1 1.568 1.728c.137.384.205.783.205 1.196 0 .414-.068.812-.205 1.196a3.016 3.016 0 0 1-.606 1.02 3.019 3.019 0 0 1-.962.708c-.374.177-.8.266-1.275.266zm10.55 2.127V22.88c0-.355.044-.694.13-1.02.087-.324.227-.612.422-.863.194-.251.44-.45.735-.598.295-.148.66-.222 1.092-.222.634 0 1.088.196 1.362.587.274.392.41.92.41 1.584v6.336h2.595v-5.76c0-.34.04-.676.119-1.008a2.58 2.58 0 0 1 .389-.886c.18-.258.41-.465.692-.62.28-.155.623-.233 1.027-.233.389 0 .706.067.951.2.245.132.44.313.584.542.144.23.245.495.303.798.057.303.086.616.086.941v6.026h2.594v-6.336c0-.635-.064-1.23-.194-1.783a4.058 4.058 0 0 0-.638-1.451 3.078 3.078 0 0 0-1.157-.975c-.475-.236-1.059-.354-1.75-.354-.78 0-1.45.159-2.012.476-.562.318-1.03.816-1.405 1.495-.533-1.314-1.614-1.971-3.243-1.971-.865 0-1.553.195-2.065.587-.511.391-.882.838-1.113 1.34h-.043v-1.661h-2.465v10.633h2.594zm19.415.265c.692 0 1.326-.136 1.903-.41.576-.273 1.052-.712 1.427-1.317h.065v1.462h2.335V22.57c0-.251-.007-.543-.022-.875a5.888 5.888 0 0 0-.14-1.03 4.333 4.333 0 0 0-.39-1.053 2.872 2.872 0 0 0-.767-.919c-.332-.266-.75-.484-1.254-.653-.505-.17-1.124-.255-1.86-.255a7.28 7.28 0 0 0-2.388.399 5.014 5.014 0 0 0-2.022 1.307l1.362 1.395c.346-.34.757-.61 1.232-.808.476-.2.988-.3 1.536-.3.691 0 1.26.167 1.708.499.446.332.67.83.67 1.495v.288h-.649c-.432 0-.894.011-1.384.033-.49.023-.976.074-1.459.155a7.915 7.915 0 0 0-1.394.366 4.08 4.08 0 0 0-1.179.653 3.012 3.012 0 0 0-.81 1.02c-.202.406-.303.897-.303 1.472 0 .532.108.997.324 1.396.216.399.501.731.854.997a3.74 3.74 0 0 0 1.21.598c.455.133.92.2 1.395.2zm.627-1.993a2.78 2.78 0 0 1-.648-.078 1.743 1.743 0 0 1-.584-.255 1.487 1.487 0 0 1-.422-.432 1.153 1.153 0 0 1-.162-.63c0-.385.137-.684.411-.898a2.863 2.863 0 0 1 1.005-.487 6.167 6.167 0 0 1 1.265-.21c.447-.03.85-.045 1.21-.045h.541v.598c0 .753-.212 1.348-.637 1.783-.426.436-1.085.654-1.979.654zM121.212 34c1.009 0 1.881-.148 2.616-.443.735-.295 1.344-.713 1.827-1.252.483-.539.84-1.196 1.07-1.971.23-.775.346-1.643.346-2.603v-9.68h-2.465v1.595h-.043c-.375-.65-.88-1.123-1.513-1.418a4.805 4.805 0 0 0-2.054-.443c-.807 0-1.524.144-2.151.432a4.825 4.825 0 0 0-1.611 1.185 5.096 5.096 0 0 0-1.016 1.772c-.23.68-.346 1.41-.346 2.193 0 .753.122 1.462.367 2.127.245.664.595 1.24 1.049 1.728.454.487.998.875 1.632 1.162.634.288 1.34.432 2.12.432a4.9 4.9 0 0 0 1.902-.387 3.43 3.43 0 0 0 1.491-1.163h.044v.775c0 .532-.054 1.015-.162 1.451a2.822 2.822 0 0 1-.541 1.119c-.252.31-.59.554-1.016.73-.425.178-.948.267-1.568.267-.735 0-1.383-.133-1.945-.4a6.337 6.337 0 0 1-1.622-1.129l-1.557 2.171c.736.665 1.535 1.122 2.4 1.373.865.251 1.78.377 2.746.377zm.303-7.576a3.024 3.024 0 0 1-2.184-.908 3.023 3.023 0 0 1-.638-.975 3.123 3.123 0 0 1-.227-1.196c0-.473.076-.905.227-1.296.152-.391.36-.724.627-.997s.588-.487.962-.642a3.25 3.25 0 0 1 1.254-.233c.952 0 1.701.288 2.249.864.548.576.821 1.33.821 2.26 0 .443-.072.856-.216 1.24a2.8 2.8 0 0 1-.616.986 2.959 2.959 0 0 1-.973.653c-.382.163-.81.244-1.286.244zm13.62 2.525a5.86 5.86 0 0 0 2.357-.487c.75-.325 1.427-.871 2.032-1.64l-1.859-1.44a4.56 4.56 0 0 1-1.157 1.031c-.44.273-.983.41-1.632.41-.735 0-1.362-.222-1.88-.665-.52-.443-.823-1.063-.909-1.86H140v-.732c0-.93-.119-1.753-.357-2.47-.238-.716-.57-1.318-.994-1.805a4.246 4.246 0 0 0-1.535-1.119 4.936 4.936 0 0 0-1.979-.387c-.778 0-1.513.133-2.205.399a5.27 5.27 0 0 0-1.794 1.13 5.364 5.364 0 0 0-1.2 1.76c-.296.687-.443 1.451-.443 2.293 0 .842.147 1.606.443 2.293a5.364 5.364 0 0 0 1.2 1.76 5.27 5.27 0 0 0 1.794 1.13 6.095 6.095 0 0 0 2.205.4zm2.27-6.645h-5.318c.1-.768.378-1.381.832-1.839.454-.458 1.07-.687 1.849-.687.821 0 1.463.226 1.924.676.461.45.7 1.067.714 1.85z" fill-rule="nonzero"/></g></svg>